<svg width="720" height="420" viewBox="0 0 720 420" fill="none" xmlns="http://www.w3.org/2000/svg">
  <defs>
    <linearGradient id="bg" x1="72" y1="48" x2="640" y2="372" gradientUnits="userSpaceOnUse">
      <stop stop-color="#FFF7ED"/>
      <stop offset="0.45" stop-color="#FFFFFF"/>
      <stop offset="1" stop-color="#EEF6FF"/>
    </linearGradient>
    <linearGradient id="accent" x1="86" y1="72" x2="278" y2="264" gradientUnits="userSpaceOnUse">
      <stop stop-color="#FF8A00"/>
      <stop offset="1" stop-color="#FF5E3A"/>
    </linearGradient>
    <linearGradient id="blue" x1="360" y1="120" x2="594" y2="312" gradientUnits="userSpaceOnUse">
      <stop stop-color="#54C6F9"/>
      <stop offset="1" stop-color="#2B7FFF"/>
    </linearGradient>
    <filter id="shadow" x="24" y="20" width="672" height="380" filterUnits="userSpaceOnUse" color-interpolation-filters="sRGB">
      <feFlood flood-opacity="0" result="BackgroundImageFix"/>
      <feColorMatrix in="SourceAlpha" type="matrix" values="0 0 0 0 0 0 0 0 0 0 0 0 0 0 0 0 0 0 127 0" result="hardAlpha"/>
      <feOffset dy="12"/>
      <feGaussianBlur stdDeviation="18"/>
      <feColorMatrix type="matrix" values="0 0 0 0 0.0588 0 0 0 0 0.102 0 0 0 0 0.1608 0 0 0 0.12 0"/>
      <feBlend mode="normal" in2="BackgroundImageFix" result="effect1_dropShadow_1_1"/>
      <feBlend mode="normal" in="SourceGraphic" in2="effect1_dropShadow_1_1" result="shape"/>
    </filter>
  </defs>

  <g filter="url(#shadow)">
    <rect x="48" y="44" width="624" height="332" rx="34" fill="url(#bg)"/>
    <rect x="48.5" y="44.5" width="623" height="331" rx="33.5" stroke="#D9E8FF"/>
  </g>

  <circle cx="138" cy="116" r="54" fill="url(#accent)"/>
  <circle cx="138" cy="116" r="31" fill="white" fill-opacity="0.96"/>
  <circle cx="138" cy="116" r="13" fill="#FF6B2C"/>
  <path d="M138 76V60" stroke="#FF7A21" stroke-width="8" stroke-linecap="round"/>
  <path d="M102 92L88 80" stroke="#FF7A21" stroke-width="8" stroke-linecap="round"/>
  <path d="M174 92L188 80" stroke="#FF7A21" stroke-width="8" stroke-linecap="round"/>

  <rect x="86" y="204" width="180" height="116" rx="22" fill="#FFFFFF" stroke="#FFE0CF"/>
  <rect x="106" y="228" width="140" height="14" rx="7" fill="#FFF0E7"/>
  <rect x="106" y="254" width="116" height="14" rx="7" fill="#FFE0CF"/>
  <rect x="106" y="280" width="96" height="14" rx="7" fill="#FFD1B2"/>

  <g opacity="0.9">
    <rect x="390" y="96" width="242" height="224" rx="28" fill="#0F172A"/>
    <rect x="390" y="96" width="242" height="224" rx="28" fill="url(#blue)" fill-opacity="0.16"/>
    <rect x="416" y="128" width="84" height="12" rx="6" fill="#93E8FF"/>
    <rect x="416" y="152" width="148" height="12" rx="6" fill="#DFF6FF" fill-opacity="0.84"/>
    <rect x="416" y="192" width="18" height="84" rx="9" fill="#2B7FFF"/>
    <rect x="444" y="172" width="18" height="104" rx="9" fill="#53C4FF"/>
    <rect x="472" y="214" width="18" height="62" rx="9" fill="#74E0C2"/>
    <path d="M534 253C552 225 568 214 588 198C598 190 606 182 612 170" stroke="#93E8FF" stroke-width="8" stroke-linecap="round"/>
    <circle cx="534" cy="253" r="8" fill="#DFF6FF"/>
    <circle cx="588" cy="198" r="8" fill="#DFF6FF"/>
    <circle cx="612" cy="170" r="8" fill="#74E0C2"/>
  </g>

  <text x="226" y="130" fill="#172554" font-size="46" font-weight="800" font-family="Arial, Helvetica, sans-serif">YouPinAI</text>
  <text x="226" y="172" fill="#4B5563" font-size="20" font-weight="600" font-family="Arial, Helvetica, sans-serif">AI 产品导航与精选平台</text>
  <text x="226" y="210" fill="#64748B" font-size="16" font-family="Arial, Helvetica, sans-serif">发现优质 AI 工具 · 快速找到可用场景 · 连接效率产品</text>

  <rect x="226" y="248" width="118" height="42" rx="21" fill="#FF6B2C"/>
  <text x="262" y="275" fill="white" font-size="16" font-weight="700" font-family="Arial, Helvetica, sans-serif">点击查看</text>

  <rect x="358" y="248" width="134" height="42" rx="21" fill="#FFFFFF" stroke="#CFE3FF"/>
  <text x="390" y="275" fill="#2563EB" font-size="16" font-weight="700" font-family="Arial, Helvetica, sans-serif">精选工具</text>
</svg>
