<svg width="1600" height="620" viewBox="0 0 1600 620" fill="none" xmlns="http://www.w3.org/2000/svg">
  <rect width="1600" height="620" rx="28" fill="#F8FBFF"/>
  <rect x="18" y="18" width="1564" height="584" rx="24" stroke="#D9E7F7" stroke-width="2"/>

  <text x="800" y="78" text-anchor="middle" font-family="Segoe UI, Arial, sans-serif" font-size="40" font-weight="700" fill="#163D8F">KaruiBI Logo Concepts</text>
  <text x="800" y="114" text-anchor="middle" font-family="Segoe UI, Arial, sans-serif" font-size="18" fill="#5B6B82">Brand direction board for product naming and icon exploration</text>

  <rect x="56" y="160" width="456" height="386" rx="26" fill="white" stroke="#D8E4F2" stroke-width="2"/>
  <rect x="572" y="160" width="456" height="386" rx="26" fill="white" stroke="#D8E4F2" stroke-width="2"/>
  <rect x="1088" y="160" width="456" height="386" rx="26" fill="white" stroke="#D8E4F2" stroke-width="2"/>

  <text x="284" y="208" text-anchor="middle" font-family="Segoe UI, Arial, sans-serif" font-size="20" font-weight="700" fill="#163D8F">Option A</text>
  <text x="800" y="208" text-anchor="middle" font-family="Segoe UI, Arial, sans-serif" font-size="20" font-weight="700" fill="#163D8F">Option B</text>
  <text x="1316" y="208" text-anchor="middle" font-family="Segoe UI, Arial, sans-serif" font-size="20" font-weight="700" fill="#163D8F">Option C</text>

  <g transform="translate(112 250)">
    <circle cx="90" cy="84" r="48" fill="none" stroke="#163D8F" stroke-width="16"/>
    <path d="M90 18 A66 66 0 0 1 155 84" stroke="#36B8C8" stroke-width="14" stroke-linecap="round"/>
    <path d="M25 84 A66 66 0 0 1 90 18" stroke="#78D7E0" stroke-width="14" stroke-linecap="round"/>
    <circle cx="90" cy="84" r="12" fill="#163D8F"/>
    <circle cx="166" cy="84" r="10" fill="#36B8C8"/>
    <circle cx="52" cy="24" r="10" fill="#78D7E0"/>
  </g>
  <text x="308" y="355" font-family="Segoe UI, Arial, sans-serif" font-size="52" font-weight="700" fill="#18355E">Karui<tspan fill="#2C8FBB">BI</tspan></text>
  <text x="284" y="414" text-anchor="middle" font-family="Segoe UI, Arial, sans-serif" font-size="17" fill="#63748C">Core Ring / Analytics Hub</text>
  <text x="284" y="446" text-anchor="middle" font-family="Segoe UI, Arial, sans-serif" font-size="15" fill="#8A98AC">Stable, enterprise, central-intelligence feel</text>

  <g transform="translate(632 252)">
    <rect x="0" y="0" width="156" height="114" rx="26" fill="url(#gradB)"/>
    <rect x="22" y="22" width="112" height="70" rx="18" fill="#F6FBFF" opacity="0.92"/>
    <rect x="38" y="38" width="22" height="38" rx="6" fill="#78D7E0"/>
    <rect x="68" y="48" width="22" height="28" rx="6" fill="#36B8C8"/>
    <rect x="98" y="32" width="22" height="44" rx="6" fill="#163D8F"/>
    <path d="M42 82 L71 62 L88 70 L118 46" stroke="#163D8F" stroke-width="6" stroke-linecap="round" stroke-linejoin="round"/>
  </g>
  <text x="824" y="355" font-family="Segoe UI, Arial, sans-serif" font-size="52" font-weight="700" fill="#18355E">Karui<tspan fill="#2C8FBB">BI</tspan></text>
  <text x="800" y="414" text-anchor="middle" font-family="Segoe UI, Arial, sans-serif" font-size="17" fill="#63748C">Window Grid / BI Panel</text>
  <text x="800" y="446" text-anchor="middle" font-family="Segoe UI, Arial, sans-serif" font-size="15" fill="#8A98AC">Direct BI association, clear product meaning</text>

  <g transform="translate(1146 246)">
    <path d="M0 116 L0 0 L34 0 L34 46 L82 0 L126 0 L68 56 L132 116 L86 116 L34 70 L34 116 Z" fill="#163D8F"/>
    <path d="M34 46 L34 70 L82 116 L126 116 L80 66 Z" fill="#36B8C8"/>
    <rect x="8" y="8" width="18" height="100" rx="9" fill="#78D7E0"/>
  </g>
  <text x="1324" y="355" font-family="Segoe UI, Arial, sans-serif" font-size="52" font-weight="700" fill="#18355E">Karui<tspan fill="#2C8FBB">BI</tspan></text>
  <text x="1316" y="414" text-anchor="middle" font-family="Segoe UI, Arial, sans-serif" font-size="17" fill="#63748C">K Monogram</text>
  <text x="1316" y="446" text-anchor="middle" font-family="Segoe UI, Arial, sans-serif" font-size="15" fill="#8A98AC">Compact, brandable, good for app icon and favicon</text>

  <defs>
    <linearGradient id="gradB" x1="0" y1="0" x2="156" y2="114" gradientUnits="userSpaceOnUse">
      <stop stop-color="#163D8F"/>
      <stop offset="1" stop-color="#36B8C8"/>
    </linearGradient>
  </defs>
</svg>
